<?xml version="1.0" encoding="UTF-8"?>
<svg id="Capa_2" data-name="Capa 2" xmlns="http://www.w3.org/2000/svg" viewBox="0 0 1080 1080">
  <defs>
    <style>
      .cls-1 {
        fill: #4dd2d7;
      }
    </style>
  </defs>
  <path class="cls-1" d="M949.38,545.04c4.7,4.48,7.05,10.29,7.05,17.45,0,11.64-3.47,21.93-10.4,30.87-6.94,8.95-17.79,13.65-32.55,14.09-35.35.45-67.11-2.23-95.3-8.06-31.32,66.67-69.02,122.04-113.08,166.1-44.07,44.07-87.58,66.11-130.53,66.11-39.37,0-68.9-20.91-88.59-62.75-19.69-41.83-30.87-97.87-33.56-168.12-26.84,77.85-57.16,135.8-90.94,173.82-33.79,38.03-69.69,57.04-107.71,57.04-42.95,0-75.4-26.73-97.31-80.2-21.93-53.46-32.88-125.38-32.88-215.76,0-65.77,5.81-138.02,17.45-216.77,3.13-22.37,8.83-37.92,17.11-46.64,8.27-8.72,21.36-13.09,39.26-13.09,13.42,0,23.83,2.92,31.21,8.72,7.38,5.82,11.07,16.56,11.07,32.22,0,3.13-.45,9.17-1.34,18.12-13.42,91.72-20.13,169.79-20.13,234.22,0,59.96,5.14,106.26,15.44,138.92,10.29,32.66,24.16,48.99,41.61,48.99,15.66,0,34.56-16.45,56.71-49.33,22.15-32.88,44.18-81.64,66.11-146.3,21.92-64.65,40.49-141.71,55.7-231.2,3.58-20.57,10.17-34.78,19.8-42.62,9.62-7.82,22.7-11.74,39.26-11.74,13.86,0,24.04,3.02,30.54,9.06,6.48,6.04,9.73,15.1,9.73,27.18,0,7.16-.45,12.75-1.34,16.78-12.53,72.93-18.79,145.86-18.79,218.78,0,49.66,1.68,89.26,5.03,118.79,3.36,29.53,9.84,52.01,19.46,67.44,9.62,15.44,23.59,23.16,41.94,23.16,21.48,0,45.41-16.21,71.81-48.65,26.4-32.43,50.55-72.82,72.48-121.14-27.3-17-47.88-39.03-61.74-66.1-13.87-27.07-20.8-58.27-20.8-93.62s5.47-65.2,16.44-89.59c10.96-24.38,25.94-42.62,44.96-54.7,19.01-12.08,40.15-18.12,63.42-18.12,28.63,0,51.34,10.3,68.12,30.87,16.78,20.58,25.17,48.77,25.17,84.56,0,50.57-10.97,106.71-32.89,168.45,22.82,4.03,49.66,6.04,80.53,6.04,10.29,0,17.79,2.24,22.48,6.71ZM771.2,503.43c17.45-50.1,26.17-91.49,26.17-124.16,0-18.79-2.46-32.55-7.38-41.27-4.93-8.73-11.64-13.09-20.13-13.09-12.08,0-21.93,7.04-29.53,21.14-7.61,14.09-11.41,34.12-11.41,60.07,0,43.85,14.09,76.29,42.28,97.31Z"/>
</svg>