<svg width="973" height="386" viewBox="0 0 973 386" fill="none" xmlns="http://www.w3.org/2000/svg">
<path d="M153.8 241.7L121 343H106.9C105.167 343 103.967 341.867 103.3 339.6L80.9 270.9C80.3667 269.367 79.9333 267.833 79.6 266.3C79.2667 264.7 78.9333 263.133 78.6 261.6C78.2667 263.133 77.9333 264.7 77.6 266.3C77.2667 267.833 76.8333 269.4 76.3 271L53.5 339.6C52.9 341.867 51.5667 343 49.5 343H36.1L3.3 241.7H17.3C18.7 241.7 19.8667 242.067 20.8 242.8C21.8 243.533 22.4667 244.4 22.8 245.4L42.2 310.6C43.3333 315.4 44.2333 319.933 44.9 324.2C45.5 322 46.1 319.767 46.7 317.5C47.3667 315.233 48.0667 312.933 48.8 310.6L70.2 245C70.5333 244 71.1 243.167 71.9 242.5C72.7667 241.833 73.8 241.5 75 241.5H82.8C84.1333 241.5 85.2333 241.833 86.1 242.5C86.9667 243.167 87.5667 244 87.9 245L108.8 310.6C109.533 312.933 110.2 315.233 110.8 317.5C111.4 319.767 111.967 322 112.5 324.2C112.833 322 113.233 319.8 113.7 317.6C114.233 315.333 114.8 313 115.4 310.6L135.2 245.4C135.533 244.333 136.167 243.467 137.1 242.8C138.033 242.067 139.133 241.7 140.4 241.7H153.8ZM216.464 240.1C223.864 240.1 230.531 241.333 236.464 243.8C242.397 246.267 247.464 249.767 251.664 254.3C255.864 258.833 259.064 264.333 261.264 270.8C263.531 277.2 264.664 284.367 264.664 292.3C264.664 300.3 263.531 307.5 261.264 313.9C259.064 320.3 255.864 325.767 251.664 330.3C247.464 334.833 242.397 338.333 236.464 340.8C230.531 343.2 223.864 344.4 216.464 344.4C208.997 344.4 202.264 343.2 196.264 340.8C190.331 338.333 185.264 334.833 181.064 330.3C176.864 325.767 173.631 320.3 171.364 313.9C169.164 307.5 168.064 300.3 168.064 292.3C168.064 284.367 169.164 277.2 171.364 270.8C173.631 264.333 176.864 258.833 181.064 254.3C185.264 249.767 190.331 246.267 196.264 243.8C202.264 241.333 208.997 240.1 216.464 240.1ZM216.464 330.5C226.464 330.5 233.931 327.167 238.864 320.5C243.797 313.767 246.264 304.4 246.264 292.4C246.264 280.333 243.797 270.933 238.864 264.2C233.931 257.467 226.464 254.1 216.464 254.1C211.397 254.1 206.964 254.967 203.164 256.7C199.431 258.433 196.297 260.933 193.764 264.2C191.297 267.467 189.431 271.5 188.164 276.3C186.964 281.033 186.364 286.4 186.364 292.4C186.364 304.4 188.831 313.767 193.764 320.5C198.764 327.167 206.331 330.5 216.464 330.5ZM308.141 262C311.341 255.067 315.274 249.667 319.941 245.8C324.607 241.867 330.307 239.9 337.041 239.9C339.174 239.9 341.207 240.133 343.141 240.6C345.141 241.067 346.907 241.8 348.441 242.8L347.141 256.1C346.741 257.767 345.741 258.6 344.141 258.6C343.207 258.6 341.841 258.4 340.041 258C338.241 257.6 336.207 257.4 333.941 257.4C330.741 257.4 327.874 257.867 325.341 258.8C322.874 259.733 320.641 261.133 318.641 263C316.707 264.8 314.941 267.067 313.341 269.8C311.807 272.467 310.407 275.533 309.141 279V343H291.241V241.7H301.441C303.374 241.7 304.707 242.067 305.441 242.8C306.174 243.533 306.674 244.8 306.941 246.6L308.141 262ZM504.755 344.6C496.755 344.6 490.588 342.367 486.255 337.9C481.988 333.433 479.855 327 479.855 318.6V256.6H467.655C466.588 256.6 465.688 256.3 464.955 255.7C464.221 255.033 463.855 254.033 463.855 252.7V245.6L480.455 243.5L484.555 212.2C484.755 211.2 485.188 210.4 485.855 209.8C486.588 209.133 487.521 208.8 488.655 208.8H497.655V243.7H526.955V256.6H497.655V317.4C497.655 321.667 498.688 324.833 500.755 326.9C502.821 328.967 505.488 330 508.755 330C510.621 330 512.221 329.767 513.555 329.3C514.955 328.767 516.155 328.2 517.155 327.6C518.155 327 518.988 326.467 519.655 326C520.388 325.467 521.021 325.2 521.555 325.2C522.488 325.2 523.321 325.767 524.055 326.9L529.255 335.4C526.188 338.267 522.488 340.533 518.155 342.2C513.821 343.8 509.355 344.6 504.755 344.6ZM591.448 240.1C598.848 240.1 605.515 241.333 611.448 243.8C617.382 246.267 622.448 249.767 626.648 254.3C630.848 258.833 634.048 264.333 636.248 270.8C638.515 277.2 639.648 284.367 639.648 292.3C639.648 300.3 638.515 307.5 636.248 313.9C634.048 320.3 630.848 325.767 626.648 330.3C622.448 334.833 617.382 338.333 611.448 340.8C605.515 343.2 598.848 344.4 591.448 344.4C583.982 344.4 577.248 343.2 571.248 340.8C565.315 338.333 560.248 334.833 556.048 330.3C551.848 325.767 548.615 320.3 546.348 313.9C544.148 307.5 543.048 300.3 543.048 292.3C543.048 284.367 544.148 277.2 546.348 270.8C548.615 264.333 551.848 258.833 556.048 254.3C560.248 249.767 565.315 246.267 571.248 243.8C577.248 241.333 583.982 240.1 591.448 240.1ZM591.448 330.5C601.448 330.5 608.915 327.167 613.848 320.5C618.782 313.767 621.248 304.4 621.248 292.4C621.248 280.333 618.782 270.933 613.848 264.2C608.915 257.467 601.448 254.1 591.448 254.1C586.382 254.1 581.948 254.967 578.148 256.7C574.415 258.433 571.282 260.933 568.748 264.2C566.282 267.467 564.415 271.5 563.148 276.3C561.948 281.033 561.348 286.4 561.348 292.4C561.348 304.4 563.815 313.767 568.748 320.5C573.748 327.167 581.315 330.5 591.448 330.5ZM732.225 265.8C728.892 261.333 725.292 258.233 721.425 256.5C717.558 254.7 713.225 253.8 708.425 253.8C699.025 253.8 691.792 257.167 686.725 263.9C681.658 270.633 679.125 280.233 679.125 292.7C679.125 299.3 679.692 304.967 680.825 309.7C681.958 314.367 683.625 318.233 685.825 321.3C688.025 324.3 690.725 326.5 693.925 327.9C697.125 329.3 700.758 330 704.825 330C710.692 330 715.792 328.667 720.125 326C724.525 323.333 728.558 319.567 732.225 314.7V265.8ZM750.025 195.7V343H739.425C736.892 343 735.292 341.767 734.625 339.3L733.025 327C728.692 332.2 723.758 336.4 718.225 339.6C712.692 342.8 706.292 344.4 699.025 344.4C693.225 344.4 687.958 343.3 683.225 341.1C678.492 338.833 674.458 335.533 671.125 331.2C667.792 326.867 665.225 321.467 663.425 315C661.625 308.533 660.725 301.1 660.725 292.7C660.725 285.233 661.725 278.3 663.725 271.9C665.725 265.433 668.592 259.833 672.325 255.1C676.058 250.367 680.625 246.667 686.025 244C691.492 241.267 697.625 239.9 704.425 239.9C710.625 239.9 715.925 240.967 720.325 243.1C724.792 245.167 728.758 248.067 732.225 251.8V195.7H750.025ZM837.039 297.4C828.839 297.667 821.839 298.333 816.039 299.4C810.306 300.4 805.606 301.733 801.939 303.4C798.339 305.067 795.706 307.033 794.039 309.3C792.439 311.567 791.639 314.1 791.639 316.9C791.639 319.567 792.072 321.867 792.939 323.8C793.806 325.733 794.972 327.333 796.439 328.6C797.972 329.8 799.739 330.7 801.739 331.3C803.806 331.833 806.006 332.1 808.339 332.1C811.472 332.1 814.339 331.8 816.939 331.2C819.539 330.533 821.972 329.6 824.239 328.4C826.572 327.2 828.772 325.767 830.839 324.1C832.972 322.433 835.039 320.533 837.039 318.4V297.4ZM779.539 256C785.139 250.6 791.172 246.567 797.639 243.9C804.106 241.233 811.272 239.9 819.139 239.9C824.806 239.9 829.839 240.833 834.239 242.7C838.639 244.567 842.339 247.167 845.339 250.5C848.339 253.833 850.606 257.867 852.139 262.6C853.672 267.333 854.439 272.533 854.439 278.2V343H846.539C844.806 343 843.472 342.733 842.539 342.2C841.606 341.6 840.872 340.467 840.339 338.8L838.339 329.2C835.672 331.667 833.072 333.867 830.539 335.8C828.006 337.667 825.339 339.267 822.539 340.6C819.739 341.867 816.739 342.833 813.539 343.5C810.406 344.233 806.906 344.6 803.039 344.6C799.106 344.6 795.406 344.067 791.939 343C788.472 341.867 785.439 340.2 782.839 338C780.306 335.8 778.272 333.033 776.739 329.7C775.272 326.3 774.539 322.3 774.539 317.7C774.539 313.7 775.639 309.867 777.839 306.2C780.039 302.467 783.606 299.167 788.539 296.3C793.472 293.433 799.906 291.1 807.839 289.3C815.772 287.433 825.506 286.367 837.039 286.1V278.2C837.039 270.333 835.339 264.4 831.939 260.4C828.539 256.333 823.572 254.3 817.039 254.3C812.639 254.3 808.939 254.867 805.939 256C803.006 257.067 800.439 258.3 798.239 259.7C796.106 261.033 794.239 262.267 792.639 263.4C791.106 264.467 789.572 265 788.039 265C786.839 265 785.806 264.7 784.939 264.1C784.072 263.433 783.339 262.633 782.739 261.7L779.539 256ZM970.609 241.7L914.109 372.9C913.509 374.233 912.743 375.3 911.809 376.1C910.943 376.9 909.576 377.3 907.709 377.3H894.509L913.009 337.1L871.209 241.7H886.609C888.143 241.7 889.343 242.1 890.209 242.9C891.143 243.633 891.776 244.467 892.109 245.4L919.209 309.2C920.276 312 921.176 314.933 921.909 318C922.843 314.867 923.843 311.9 924.909 309.1L951.209 245.4C951.609 244.333 952.276 243.467 953.209 242.8C954.209 242.067 955.309 241.7 956.509 241.7H970.609Z" fill="white"/>
<path d="M385.992 195.7V282.4H390.592C391.926 282.4 393.026 282.233 393.892 281.9C394.826 281.5 395.792 280.733 396.792 279.6L428.792 245.3C429.726 244.167 430.692 243.3 431.692 242.7C432.759 242.033 434.159 241.7 435.892 241.7H451.992L414.692 281.4C412.892 283.667 410.959 285.433 408.892 286.7C410.092 287.5 411.159 288.433 412.092 289.5C413.092 290.5 414.026 291.667 414.892 293L454.492 343H438.592C437.059 343 435.726 342.767 434.592 342.3C433.526 341.767 432.592 340.833 431.792 339.5L398.492 298C397.492 296.6 396.492 295.7 395.492 295.3C394.559 294.833 393.092 294.6 391.092 294.6H385.992V343H368.092V195.7H385.992Z" fill="#3C77AD"/>
<path d="M334 108.187L365.279 76.9088L419.372 131.002L473.466 185.096L442.187 216.375L388.094 162.281L334 108.187Z" fill="#3C77AD"/>
<path d="M372.638 69.5491L403.549 38.6384L457.643 92.7321L511.736 146.826L480.826 177.736L426.732 123.643L372.638 69.5491Z" fill="#6087AB"/>
<path d="M410.909 31.2788L442.187 0.000103295L550.375 108.187L519.096 139.466L410.909 31.2788Z" fill="#8FAAC2"/>
</svg>
