<?xml version="1.0" encoding="UTF-8"?>
<svg id="Capa_2" data-name="Capa 2" xmlns="http://www.w3.org/2000/svg" viewBox="0 0 1080 1080">
  <defs>
    <style>
      .cls-1 {
        fill: #fff;
      }
    </style>
  </defs>
  <path class="cls-1" d="M898.68,540.45c-8.11,0-13.99,1.24-17.65,3.71-3.66,2.47-6.28,6.78-7.86,12.9-5.25,21.29-9.42,44.29-12.53,68.93-5.66,6.3-10.5,11.13-14.46,14.41-5.74,4.75-11.67,7.12-17.8,7.12-5.74,0-10.63-1.63-14.68-4.89-4.06-3.26-6.48-7.56-7.27-12.9,13.44-7.12,22.94-15.22,28.47-24.32,5.53-9.09,8.31-19.08,8.31-29.96,0-9.89-3.02-18.19-9.05-24.91-6.04-6.72-13.99-10.08-23.88-10.08-10.68,0-22.15,5.59-34.41,16.76-12.26,11.17-23.14,29.12-32.63,53.83,0-10.87.3-21.45.89-31.74,26.3-28.67,45.28-53.73,56.95-75.19,11.67-21.45,17.5-42.16,17.5-62.14,0-12.46-2.82-22.59-8.45-30.4-5.64-7.81-13.01-11.72-22.1-11.72-17.01,0-31.59,11.23-43.75,33.67-12.16,22.44-21.36,50.18-27.58,83.2-5.31,28.17-8.34,55.4-9.12,81.7-4.76,3.47-8.89,5.21-12.38,5.21-4.95,0-7.42-3.46-7.42-10.38,0-1.97.79-6.92,2.37-14.83,1.78-9.89,2.67-16.11,2.67-18.69,0-12.85-6.43-19.28-19.28-19.28-6.52,0-13.69,2.28-21.5,6.82-7.81,4.55-15.77,12.16-23.88,22.84-8.11,10.68-15.42,24.52-21.95,41.52.79-8.7,1.78-16.02,2.97-21.95s2.77-12.85,4.75-20.76c2.97-11.07,4.45-18.19,4.45-21.36,0-2.77-.79-4.64-2.37-5.64-1.59-.99-4.35-1.48-8.3-1.48-7.32,0-13.01,1.33-17.05,4-4.06,2.67-6.97,6.87-8.75,12.61-3.44,10.87-6.04,22.04-7.86,33.48-8.83,1.96-16.7,3.16-23.58,3.6-1.59-15.22-6.97-28.03-16.17-38.41-9.2-10.38-21.31-15.57-36.33-15.57-12.26,0-23.43,3.31-33.52,9.94-1.19.78-2.34,1.6-3.47,2.46-2.07-1.33-4.96-2.01-8.69-2.01-13.64,0-25.51-.89-35.59-2.67,9.69-27.29,14.53-52.1,14.53-74.45,0-15.82-3.71-28.27-11.12-37.37-7.42-9.09-17.45-13.64-30.11-13.64-10.29,0-19.63,2.67-28.03,8.01-8.41,5.34-15.03,13.4-19.87,24.17-4.85,10.78-7.27,23.98-7.27,39.6s3.06,29.42,9.2,41.38c6.13,11.97,15.22,21.7,27.29,29.22-9.69,21.36-20.37,39.2-32.03,53.54-11.67,14.34-22.24,21.5-31.74,21.5-8.11,0-14.29-3.41-18.54-10.23-4.25-6.82-7.12-16.76-8.6-29.81s-2.23-30.55-2.23-52.5c0-32.23,2.77-64.46,8.31-96.69.39-1.78.59-4.25.59-7.41,0-5.34-1.44-9.34-4.3-12.01-2.87-2.67-7.37-4-13.49-4-7.32,0-13.1,1.73-17.35,5.19-4.25,3.46-7.17,9.74-8.75,18.83-6.72,39.55-14.93,73.61-24.62,102.18-9.69,28.58-19.43,50.13-29.22,64.66-9.79,14.53-18.14,21.8-25.06,21.8-7.71,0-13.84-7.22-18.39-21.65-4.55-14.43-6.82-34.9-6.82-61.4,0-28.47,2.97-62.98,8.9-103.52.39-3.95.59-6.62.59-8.01,0-6.92-1.63-11.66-4.89-14.24-3.26-2.57-7.86-3.86-13.79-3.86-7.91,0-13.69,1.93-17.35,5.78-3.66,3.86-6.18,10.73-7.56,20.61-5.14,34.81-7.71,66.74-7.71,95.8,0,39.94,4.84,71.73,14.53,95.36,9.69,23.63,24.03,35.44,43.01,35.44,16.81,0,32.67-8.4,47.61-25.21,14.93-16.8,28.32-42.41,40.19-76.82,1.19,31.05,6.13,55.81,14.83,74.3,8.7,18.49,21.75,27.73,39.15,27.73,18.98,0,38.21-9.74,57.69-29.22,19.47-19.47,36.13-43.94,49.98-73.41,10.52,2.17,22.18,3.34,34.96,3.54-4.7,10.93-7.08,23.19-7.08,36.8,0,11.08,2.17,21.36,6.53,30.85,4.35,9.49,10.72,17.11,19.13,22.84,8.4,5.74,18.54,8.6,30.4,8.6,14.04,0,26.59-4.99,37.67-14.98,11.07-9.98,18.49-23.28,22.25-39.89,8.04-.33,15.69-1.26,22.97-2.73-.08,2.58-.14,5.16-.14,7.77,0,17.4,1.53,30.06,4.6,37.97,3.06,7.91,8.35,11.86,15.87,11.86,6.13,0,10.63-1.63,13.5-4.89,2.86-3.26,5.38-9.54,7.56-18.83,2.97-12.06,6.82-23.53,11.57-34.41,4.75-10.87,9.54-19.62,14.39-26.25,4.84-6.62,8.75-9.94,11.72-9.94,2.17,0,3.26,1.59,3.26,4.75,0,1.39-.2,4.06-.59,8.01-.59,2.97-.89,5.93-.89,8.9,0,9.1,2.72,16.31,8.16,21.65,5.44,5.34,13.39,8.01,23.88,8.01,8.31,0,16.17-2.03,23.58-6.08.03-.01.05-.03.08-.04.23,8.89.65,16.18,1.26,21.84.99,9.3,2.91,16.16,5.78,20.61,2.86,4.45,7.36,6.67,13.49,6.67s10.63-1.63,13.5-4.89c2.86-3.26,5.38-9.54,7.56-18.83,3.16-12.85,7.51-25.36,13.05-37.52,5.53-12.16,11.52-22.1,17.94-29.81,6.42-7.71,12.31-11.57,17.65-11.57,2.17,0,4,.89,5.49,2.67,1.48,1.78,2.23,4.45,2.23,8.01,0,6.13-1.88,11.32-5.64,15.57-3.76,4.26-9.99,8.26-18.69,12.01-7.91,3.36-11.86,8.9-11.86,16.61,0,14.44,4.64,26,13.94,34.7,9.29,8.7,21.55,13.05,36.78,13.05,12.46,0,23.23-3.26,32.33-9.79,1.53-1.09,3.05-2.27,4.57-3.49.34,4.15,1.48,7.3,3.44,9.42,2.37,2.57,6.72,3.86,13.05,3.86,7.12,0,12.36-1.29,15.72-3.86,3.36-2.57,5.24-7.02,5.64-13.35,1.78-28.67,7.12-64.16,16.02-106.48.39-2.77.59-4.64.59-5.64,0-6.92-4.25-10.38-12.75-10.38ZM757.35,485.72c4.05-17.3,8.25-31.04,12.61-41.23,4.35-10.18,8.31-15.28,11.86-15.28,2.57,0,4.55,1.68,5.93,5.04,1.38,3.36,2.08,8.21,2.08,14.53,0,13.84-4,29.27-12.01,46.27-8.01,17.01-18.14,32.73-30.4,47.16,2.57-20.36,5.88-39.2,9.94-56.5ZM383.49,535.11c-12.46-9.29-18.69-23.63-18.69-43.01,0-11.47,1.68-20.32,5.04-26.55,3.36-6.23,7.71-9.34,13.05-9.34,3.75,0,6.72,1.93,8.9,5.78,2.17,3.86,3.26,9.94,3.26,18.24,0,14.44-3.86,32.73-11.57,54.87ZM507.02,640.99c-4.65,5.14-10.14,7.71-16.46,7.71-5.74,0-10.73-2.86-14.98-8.6-4.25-5.73-6.38-14.04-6.38-24.92,0-13.84,2.62-24.57,7.86-32.18,5.24-7.61,11.81-11.42,19.72-11.42h1.48c-.59,3.17-.89,6.33-.89,9.49,0,7.52,1.63,14.64,4.89,21.36,3.26,6.72,7.96,12.16,14.09,16.31-1.59,9.69-4.7,17.11-9.34,22.25Z"/>
  <path class="cls-1" d="M923.3,479.94c-4.55-3.56-10.48-5.34-17.8-5.34-8.11,0-14.88,2.33-20.32,6.97-5.44,4.65-8.16,10.43-8.16,17.35s2.08,12.31,6.23,16.17c4.15,3.86,10.38,5.78,18.69,5.78s15.32-2.32,20.47-6.97c5.14-4.64,7.71-10.92,7.71-18.83,0-6.53-2.28-11.57-6.82-15.13Z"/>
  <path class="cls-1" d="M956.43,626.04c-14.53,0-26.31,11.78-26.31,26.31s11.78,26.31,26.31,26.31,26.31-11.78,26.31-26.31-11.78-26.31-26.31-26.31Z"/>
</svg>